<svg
   viewBox="0 0 500 500"
   version="1.1"
   xmlns="http://www.w3.org/2000/svg">
   <style>
      @media (prefers-color-scheme: dark) {
         .a { fill: #fff }
      }
   </style>
   <path
      class="a"
      fill="#000"
      d="M 250 0 A 250.00001 250.00001 0 0 0 0 250 A 250.00001 250.00001 0 0 0 250 500 A 250.00001 250.00001 0 0 0 500 250 A 250.00001 250.00001 0 0 0 250 0 z M 147.72266 90.039062 L 246.16016 90.039062 C 274.28504 90.039062 299.40634 96.412163 321.52539 109.15625 C 343.79092 121.75385 361.15044 139.77158 373.60156 163.20898 C 386.05268 186.4999 392.27734 213.0138 392.27734 242.75 L 392.27734 257.4707 C 392.27734 287.20691 386.12495 313.64658 373.82031 336.79102 C 361.66216 359.93545 344.45108 377.88091 322.18555 390.625 C 299.92002 403.36909 274.79676 409.81445 246.81836 409.96094 L 147.72266 409.96094 L 147.72266 90.039062 z M 213.64062 143.43359 L 213.64062 357.00586 L 245.5 357.00586 C 271.28114 357.00586 290.98443 348.58391 304.60742 331.73828 C 318.23041 314.89265 325.1875 290.79479 325.48047 259.44727 L 325.48047 242.5293 C 325.48047 210.0099 318.74213 185.40032 305.26562 168.70117 C 291.78912 151.85554 272.08778 143.43359 246.16016 143.43359 L 213.64062 143.43359 z "
      />
</svg>
